<svg width="0" height="0" class="hidden">
	<symbol fill="currentColor" xmlns="http://www.w3.org/2000/svg" viewBox="0 0 3 19" id="important">
		<path d="M0 0.5H3V13.5H0V0.5Z"></path>
		<path d="M0 15.5H3V18.5H0V15.5Z"></path>
	</symbol>
	<symbol fill="currentColor" xmlns="http://www.w3.org/2000/svg" viewBox="0 0 15 15" id="cross">
		<path fill-rule="evenodd" clip-rule="evenodd"
			d="M7.4999 9.31827L12.9547 14.7731L14.773 12.9548L9.31817 7.5L14.773 2.04518L12.9547 0.226901L7.49989 5.68173L2.04507 0.226902L0.226796 2.04518L5.68162 7.5L0.226797 12.9548L2.04507 14.7731L7.4999 9.31827ZM7.4999 9.31827L9.31817 7.5L7.49989 5.68173L5.68162 7.5L7.4999 9.31827Z">
		</path>
		<path d="M7.4999 9.31827L9.31817 7.5L7.49989 5.68173L5.68162 7.5L7.4999 9.31827Z"></path>
	</symbol>
	<symbol fill="currentColor" xmlns="http://www.w3.org/2000/svg" viewBox="0 0 19 15" id="check">
		<path fill-rule="evenodd" clip-rule="evenodd"
			d="M7.25 9.75L16.25 0.75L18.5 3L9.5 12L7.25 9.75ZM5 12L7.25 9.75L2.75 5.25L0.5 7.5L5 12Z"></path>
		<path fill-rule="evenodd" clip-rule="evenodd"
			d="M7.25 9.75L16.25 0.75L18.5 3L9.5 12L7.25 9.75ZM5 12L7.25 9.75L2.75 5.25L0.5 7.5L5 12Z"></path>
		<path d="M5 12L7.25 14.25L9.5 12L7.25 9.75L5 12Z"></path>
		<path d="M5 12L7.25 14.25L9.5 12L7.25 9.75L5 12Z"></path>
	</symbol>
</svg>